<svg width="12" height="20" viewBox="0 0 12 20" fill="none" xmlns="http://www.w3.org/2000/svg">
<path d="M7.4768 9.83202L1.04933 3.29406C0.472113 2.70693 0.467247 1.76697 1.03835 1.17389V1.17389C1.63202 0.557376 2.6174 0.552274 3.21742 1.16261L11.0366 9.11623C11.4163 9.50246 11.4195 10.1208 11.0439 10.5109L3.3074 18.5451C2.71374 19.1616 1.72836 19.1667 1.12834 18.5564V18.5564C0.551123 17.9692 0.546256 17.0293 1.11736 16.4362L7.4768 9.83202Z" fill="#5442D2"/>
<path d="M7.4768 9.83202L1.04933 3.29406C0.472113 2.70693 0.467247 1.76697 1.03835 1.17389V1.17389C1.63202 0.557376 2.6174 0.552274 3.21742 1.16261L11.0366 9.11623C11.4163 9.50246 11.4195 10.1208 11.0439 10.5109L3.3074 18.5451C2.71374 19.1616 1.72836 19.1667 1.12834 18.5564V18.5564C0.551123 17.9692 0.546256 17.0293 1.11736 16.4362L7.4768 9.83202Z" fill="#5442D2"/>
<path d="M7.4768 9.83202L1.04933 3.29406C0.472113 2.70693 0.467247 1.76697 1.03835 1.17389V1.17389C1.63202 0.557376 2.6174 0.552274 3.21742 1.16261L11.0366 9.11623C11.4163 9.50246 11.4195 10.1208 11.0439 10.5109L3.3074 18.5451C2.71374 19.1616 1.72836 19.1667 1.12834 18.5564V18.5564C0.551123 17.9692 0.546256 17.0293 1.11736 16.4362L7.4768 9.83202Z" fill="#5442D2"/>
<path d="M7.4768 9.83202L1.04933 3.29406C0.472113 2.70693 0.467247 1.76697 1.03835 1.17389V1.17389C1.63202 0.557376 2.6174 0.552274 3.21742 1.16261L11.0366 9.11623C11.4163 9.50246 11.4195 10.1208 11.0439 10.5109L3.3074 18.5451C2.71374 19.1616 1.72836 19.1667 1.12834 18.5564V18.5564C0.551123 17.9692 0.546256 17.0293 1.11736 16.4362L7.4768 9.83202Z" fill="#5442D2"/>
</svg>
