<svg width="34" height="34" viewBox="0 0 34 34" fill="none" xmlns="http://www.w3.org/2000/svg">
<path d="M16.8327 33.6667C7.62768 33.6667 0.166016 26.205 0.166016 17C0.166016 7.79504 7.62768 0.333374 16.8327 0.333374C26.0377 0.333374 33.4994 7.79504 33.4994 17C33.4994 26.205 26.0377 33.6667 16.8327 33.6667ZM10.9993 20.3334V23.6667H15.166V27H18.4993V23.6667H20.166C21.2711 23.6667 22.3309 23.2277 23.1123 22.4463C23.8937 21.6649 24.3327 20.6051 24.3327 19.5C24.3327 18.395 23.8937 17.3352 23.1123 16.5538C22.3309 15.7724 21.2711 15.3334 20.166 15.3334H13.4993C13.2783 15.3334 13.0664 15.2456 12.9101 15.0893C12.7538 14.933 12.666 14.7211 12.666 14.5C12.666 14.279 12.7538 14.0671 12.9101 13.9108C13.0664 13.7545 13.2783 13.6667 13.4993 13.6667H22.666V10.3334H18.4993V7.00004H15.166V10.3334H13.4993C12.3943 10.3334 11.3345 10.7724 10.5531 11.5538C9.77167 12.3352 9.33268 13.395 9.33268 14.5C9.33268 15.6051 9.77167 16.6649 10.5531 17.4463C11.3345 18.2277 12.3943 18.6667 13.4993 18.6667H20.166C20.387 18.6667 20.599 18.7545 20.7553 18.9108C20.9116 19.0671 20.9993 19.279 20.9993 19.5C20.9993 19.7211 20.9116 19.933 20.7553 20.0893C20.599 20.2456 20.387 20.3334 20.166 20.3334H10.9993Z" fill="url(#paint0_linear_1019_9864)"/>
<defs>
<linearGradient id="paint0_linear_1019_9864" x1="7.30887" y1="0.333374" x2="30.3691" y2="39.9685" gradientUnits="userSpaceOnUse">
<stop stop-color="#FFD061"/>
<stop offset="1" stop-color="#E977AB"/>
</linearGradient>
</defs>
</svg>
