<svg width="80" height="63" fill="none" xmlns="http://www.w3.org/2000/svg"><path opacity=".3" d="M53.75 33.496c-3.1-1.357-5.518-3.392-7.254-6.107-1.736-2.714-2.604-5.922-2.604-9.623 0-5.305 1.674-9.623 5.022-12.954C52.26 1.604 56.539 0 61.747 0c5.207 0 9.547 1.666 13.019 4.997 3.347 3.33 5.021 7.587 5.021 12.77 0 2.467-.31 4.934-.93 7.402-.62 2.467-1.984 6.168-4.091 11.103l-10.788 26.65H45.566l8.183-29.426zm-43.893 0c-3.1-1.357-5.517-3.392-7.253-6.107C.868 24.675 0 21.467 0 17.766c0-5.305 1.674-9.623 5.022-12.954C8.369 1.604 12.647 0 17.855 0c5.207 0 9.547 1.666 13.018 4.997 3.348 3.33 5.022 7.587 5.022 12.77 0 2.467-.31 4.934-.93 7.402-.62 2.467-1.984 6.168-4.092 11.103l-10.787 26.65H1.674l8.183-29.426z" fill="#8C61FF"/></svg>