<svg width="129" height="122" viewBox="0 0 129 122" fill="none" xmlns="http://www.w3.org/2000/svg">
<path fill-rule="evenodd" clip-rule="evenodd" d="M81.2186 2.42034C80.656 3.01948 80.0425 4.16574 79.4541 6.09081C76.8439 14.6307 76.7485 21.2858 78.1008 26.7409C79.4538 32.199 82.2768 36.5412 85.6466 40.4272L85.6852 40.4716L85.7179 40.5204C86.8787 42.2486 87.5286 43.813 87.7152 45.2601C87.9042 46.7266 87.6097 48.0168 86.9779 49.1597C85.7584 51.3659 83.2884 52.9832 80.9147 54.444C80.631 54.6186 80.3034 54.7226 79.9493 54.7292C76.3507 54.7963 72.0947 54.4436 67.5452 54.0666C65.0313 53.8583 62.4278 53.6426 59.7961 53.4861C52.3222 53.0418 44.4749 53.0567 37.2086 54.9331C29.9676 56.8028 23.3111 60.5185 18.1768 67.4968C13.0292 74.493 9.35126 84.8511 8.24449 100.108C8.15736 101.309 7.0268 102.088 5.95096 102.005C4.93362 101.926 3.85266 102.112 3.09122 102.664C2.39423 103.17 1.80644 104.097 1.94546 105.896C2.08521 107.705 2.84378 108.479 3.67562 108.846C4.60878 109.257 5.82923 109.239 6.94417 109.038C7.97491 108.853 9.07513 109.481 9.29205 110.597C9.89514 113.699 10.7373 116.866 11.8416 120.092H67.0509C67.0514 120.092 67.052 120.092 67.0526 120.092C67.0555 120.09 67.0583 120.089 67.0604 120.087C67.0611 120.087 67.0615 120.087 67.0618 120.086C69.8786 117.164 70.7122 115.1 70.6016 113.688C70.4973 112.355 69.5043 111.231 67.5541 110.279C65.6203 109.334 62.9815 108.683 60.1094 108.205C57.2806 107.735 54.3045 107.445 51.6736 107.188L51.5901 107.18C50.7181 107.095 50.1021 106.489 49.9345 105.764C49.7649 105.031 50.0641 104.211 50.8476 103.779C67.2953 94.7133 91.5706 101.082 100.206 120.075C100.209 120.082 100.215 120.088 100.22 120.091C100.221 120.092 100.222 120.092 100.222 120.092H112.41C112.412 120.092 112.413 120.092 112.413 120.092C112.416 120.09 112.421 120.085 112.427 120.075C112.434 120.061 112.437 120.047 112.437 120.036C112.437 120.028 112.436 120.02 112.428 120.007C108.332 113.281 106.247 104.06 105.179 96.0333C104.108 87.9805 104.045 81.006 104.059 78.6953C104.064 77.7431 104.766 76.9928 105.654 76.8301C107.309 76.5268 111.373 75.6498 115.545 73.7526C119.737 71.8464 123.89 68.9768 125.93 64.7678C128.503 59.4581 126.439 53.5772 122.56 48.5908C118.683 43.6076 113.241 39.8549 109.741 38.8788C108.805 38.6176 108.09 37.7028 108.262 36.6432C108.949 32.4277 109.673 25.3522 109.637 19.3953C109.62 16.4059 109.411 13.7669 108.94 11.9244C108.702 10.9959 108.419 10.3562 108.127 9.9774C107.859 9.63057 107.654 9.57833 107.471 9.5923C107.257 9.60868 106.967 9.72398 106.596 10.0777C106.224 10.4323 105.831 10.973 105.428 11.7062C104.624 13.1717 103.876 15.2374 103.198 17.6396C101.847 22.431 100.835 28.3561 100.194 32.9839C100.048 34.0353 99.1778 34.5877 98.3801 34.6506C97.5815 34.7136 96.6317 34.3027 96.3268 33.2809C93.8161 24.8666 90.3629 14.2128 86.9595 7.63681C86.1111 5.99741 85.2828 4.64566 84.4933 3.65603C83.6831 2.64046 83.0057 2.12429 82.493 1.96355C82.2613 1.89092 82.0731 1.89346 81.9008 1.94586C81.7201 2.00082 81.4895 2.13175 81.2186 2.42034ZM88.6728 6.76637C92.1703 13.5243 95.6682 24.3451 98.1732 32.74C98.1736 32.7417 98.1741 32.7431 98.1746 32.7444C98.1766 32.7451 98.1792 32.7457 98.1821 32.7464C98.1939 32.749 98.2096 32.7504 98.2274 32.749C98.2574 32.7467 98.2765 32.7381 98.285 32.7332C98.2855 32.731 98.286 32.7282 98.2865 32.7247C98.9312 28.0671 99.9576 22.0419 101.344 17.1263C102.035 14.6749 102.83 12.448 103.737 10.7951C104.19 9.96911 104.694 9.24417 105.26 8.7035C105.828 8.16185 106.517 7.75208 107.323 7.69035C108.324 7.61369 109.107 8.10722 109.656 8.81816C110.18 9.49716 110.543 10.4272 110.806 11.456C111.336 13.5281 111.545 16.354 111.563 19.3842C111.599 25.4665 110.863 32.6492 110.163 36.9472C110.162 36.9528 110.161 36.963 110.175 36.9829C110.191 37.006 110.221 37.0308 110.263 37.0426C114.271 38.1606 120.036 42.2213 124.085 47.4263C128.131 52.628 130.711 59.3101 127.665 65.5935C125.34 70.3922 120.703 73.506 116.348 75.4863C111.974 77.4758 107.736 78.3885 106.004 78.7059C105.994 78.7078 105.987 78.7108 105.984 78.7131C105.971 80.9846 106.034 87.8582 107.088 95.784C108.147 103.744 110.192 112.643 114.077 119.022C114.84 120.275 113.987 122 112.41 122H100.221C99.4421 122 98.7585 121.535 98.4507 120.858C90.3513 103.045 67.5583 96.9556 52.038 105.307C54.6179 105.559 57.5888 105.852 60.428 106.324C63.3495 106.81 66.2134 107.497 68.4056 108.568C70.5814 109.631 72.338 111.2 72.5212 113.541C72.6983 115.802 71.3577 118.391 68.4534 121.405C68.1011 121.77 67.5925 122 67.0596 122H11.8384C11.0214 122 10.2863 121.488 10.0207 120.712C8.88762 117.403 8.02195 114.15 7.40146 110.958C7.40065 110.953 7.39968 110.952 7.39806 110.949C7.39582 110.946 7.39029 110.94 7.37933 110.933C7.35547 110.917 7.32187 110.909 7.28746 110.915C6.03218 111.141 4.35073 111.231 2.89293 110.588C1.33382 109.901 0.212383 108.458 0.0257287 106.042C-0.154629 103.707 0.626446 102.088 1.95382 101.125C3.21675 100.209 4.81568 100.004 6.10102 100.103C6.14737 100.107 6.21282 100.09 6.26819 100.047C6.32111 100.005 6.32399 99.9726 6.3241 99.9711C7.44704 84.4914 11.1934 73.7497 16.6209 66.373C22.0617 58.9783 29.1311 55.0475 36.723 53.0871C44.2896 51.1332 52.3822 51.1343 59.9114 51.5819C62.6648 51.7456 65.3247 51.9666 67.8589 52.1772C72.3221 52.5481 76.3951 52.8866 79.901 52.8222C82.3533 51.313 84.353 49.937 85.2893 48.2434C85.7355 47.4361 85.9404 46.5494 85.8053 45.5018C85.6692 44.4457 85.1802 43.1741 84.1471 41.6252C80.6767 37.6147 77.6751 33.0216 76.231 27.1959C74.7807 21.3453 74.922 14.3367 77.6114 5.5379C78.2268 3.52473 78.9443 2.0419 79.8089 1.12101C80.2515 0.649582 80.7587 0.29776 81.3358 0.122224C81.9213 -0.0558755 82.5111 -0.0315841 83.0737 0.144785C84.1496 0.482037 85.126 1.37283 86.0038 2.4731C86.9022 3.59931 87.796 5.07227 88.6728 6.76637Z" fill="#F7AD81"/>
<path d="M113 52.5C113 53.3284 112.105 54 111 54C109.895 54 109 53.3284 109 52.5C109 51.6716 109.895 51 111 51C112.105 51 113 51.6716 113 52.5Z" fill="#F7AD81"/>
</svg>
